<svg width="108" height="140" viewBox="0 0 108 140" fill="none" xmlns="http://www.w3.org/2000/svg">
<path fill-rule="evenodd" clip-rule="evenodd" d="M31.9028 9.67188V9.33327C31.9028 7.47634 33.3899 5.97127 35.2257 5.97127H72.1234C73.9593 5.97127 75.4463 7.47634 75.4463 9.33327V9.67188C75.4463 11.5288 73.9593 13.0339 72.1234 13.0339H35.2257C33.3899 13.0339 31.9028 11.5288 31.9028 9.67188ZM102.058 19.8736L101.605 11.8036C101.311 5.23019 95.2631 0.0365601 87.9019 0.0365601H19.2294C11.8622 0.0365601 5.81059 5.23862 5.52486 11.818L5.07959 20.1049C9.90016 19.7037 29.161 18.2227 51.1327 18.2227C73.2116 18.2227 96.387 19.5313 102.058 19.8736Z" fill="white"/>
<path fill-rule="evenodd" clip-rule="evenodd" d="M88.6023 111.309C84.5949 111.309 81.3446 108.021 81.3446 103.965C81.3446 99.9084 84.5949 96.6199 88.6023 96.6199C92.6097 96.6199 95.8587 99.9084 95.8587 103.965C95.8587 108.021 92.6097 111.309 88.6023 111.309ZM18.7273 111.325C14.7199 111.325 11.4708 108.037 11.4708 103.98C11.4708 99.9241 14.7199 96.6368 18.7273 96.6368C22.7359 96.6368 25.9837 99.9241 25.9837 103.98C25.9837 108.037 22.7359 111.325 18.7273 111.325ZM107.234 112.361L102.271 23.6923C101.176 23.6248 99.0625 23.4995 96.1718 23.3464L97.9374 84.4673C97.9601 85.3012 97.3314 85.9989 96.5243 86.0315C84.5175 86.5074 67.1746 87.0509 50.3604 87.0509C35.0474 87.0509 20.8524 86.5364 10.6124 86.0327C9.81 85.9929 9.18733 85.2976 9.21234 84.4673L11.0506 23.4609C8.00987 23.673 5.8633 23.8489 4.87394 23.9345L0.114095 112.379C-0.185925 117.938 4.45725 122.717 10.6541 123.236C10.9839 123.264 11.3375 123.293 11.6804 123.321V134.893C11.6804 134.893 11.8828 139.88 16.6081 139.88H21.0893C25.8147 139.88 26.0218 134.893 26.0218 134.893V124.274C33.9557 124.688 43.3301 124.997 53.6677 124.997C64.1351 124.997 73.6132 124.68 81.6149 124.258V134.893C81.6149 134.893 81.8197 139.88 86.5426 139.88H91.0239C95.7492 139.88 95.9564 134.893 95.9564 134.893V123.298C96.2004 123.277 96.4576 123.258 96.6945 123.238C102.902 122.717 107.546 117.926 107.234 112.361Z" fill="white"/>
</svg>
