<svg width="98" height="152" viewBox="0 0 98 152" fill="none" xmlns="http://www.w3.org/2000/svg">
<path d="M73.7554 132.311L87.5907 151.428H97.4563L79.5977 132.311H73.7554Z" fill="white"/>
<path d="M23.9551 132.311H17.9811L0.249268 151.428H10.1198L23.9551 132.311Z" fill="white"/>
<path d="M22.1672 138.705H75.4017L73.0609 135.267H24.5032L22.1672 138.705Z" fill="white"/>
<path d="M78.296 145.033H19.146L16.8101 148.471H80.6319L78.296 145.033Z" fill="white"/>
<path d="M95.3618 90.3106C95.3569 89.9205 95.2594 89.5596 95.0984 89.2329C95.0497 89.1207 94.957 89.0427 94.8887 88.9402C94.7571 88.7403 94.6205 88.5403 94.4401 88.3794C94.3328 88.2867 94.2011 88.2282 94.0792 88.1551C93.967 88.0819 93.85 88.0234 93.7281 87.9697C93.6452 87.9356 93.5769 87.8771 93.4891 87.8478C93.3428 87.7942 93.1868 87.7844 93.0307 87.76C93.0112 87.7552 92.9868 87.7552 92.9624 87.7552C92.6991 87.7161 92.4357 87.6576 92.1578 87.6966C89.1732 88.1112 70.8025 90.1253 69.6858 90.218C68.2227 90.335 67.0865 91.486 67.0865 92.8807V101.318C67.0865 101.922 66.8377 102.454 66.4817 102.903C65.9648 103.546 65.1894 103.99 64.2726 103.99H33.4369C32.5201 103.99 31.7447 103.546 31.2327 102.903C30.8718 102.454 30.6231 101.922 30.6231 101.318V92.8807C30.6231 91.486 29.4917 90.335 28.0238 90.218C24.6686 89.9497 7.15619 87.9063 5.68829 87.7015C5.38593 87.6576 5.09821 87.7113 4.81536 87.76C4.79097 87.7649 4.77147 87.7698 4.74708 87.7698C4.61541 87.7942 4.47886 87.8039 4.35694 87.8478C4.2204 87.8917 4.10822 87.9746 3.98143 88.038C3.90828 88.077 3.83513 88.1112 3.76686 88.1502C3.64494 88.2282 3.51326 88.2867 3.40597 88.3794C3.22553 88.5355 3.08899 88.7354 2.95244 88.9354C2.88905 89.0329 2.79638 89.1158 2.74274 89.2231C2.58668 89.5498 2.48428 89.9107 2.4794 90.3009L2.06975 113.773C2.04537 115.129 3.08899 116.285 4.50324 116.465L13.3204 117.611C14.008 117.699 14.6079 118.021 15.0419 118.484C15.4759 118.948 15.7393 119.552 15.7539 120.211L15.8368 124.434C15.8465 124.902 15.9685 125.341 16.1148 125.77C16.2123 126.048 16.3488 126.297 16.4951 126.546C16.7877 127.048 17.1633 127.477 17.6168 127.843C18.28 128.379 19.0506 128.799 19.9576 128.935L48.4134 133.247C48.706 133.29 49.0035 133.29 49.301 133.247L79.4734 128.672C80.1464 128.574 80.7316 128.248 81.151 127.789C81.5704 127.331 81.8288 126.731 81.8435 126.087L81.9556 120.211C81.9703 119.552 82.2336 118.948 82.6676 118.484C83.1017 118.021 83.7015 117.699 84.3891 117.611L90.963 116.758C93.6598 116.407 95.6593 114.207 95.6251 111.623L95.3618 90.3106Z" fill="white"/>
<path d="M54.8608 43.2778C56.7823 43.2778 58.338 44.8335 58.338 46.755C58.338 48.6765 56.7823 50.2322 54.8608 50.2322C52.9394 50.2322 51.3837 48.6765 51.3837 46.755C51.3837 44.8335 52.9394 43.2778 54.8608 43.2778ZM42.8641 50.2322C40.9426 50.2322 39.3869 48.6765 39.3869 46.755C39.3869 44.8335 40.9426 43.2778 42.8641 43.2778C44.7855 43.2778 46.3412 44.8335 46.3412 46.755C46.3412 48.6765 44.7855 50.2322 42.8641 50.2322ZM47.1702 20.8589V39.3178H17.822C18.3487 42.5609 18.8071 45.3651 19.1387 47.4134C19.5045 49.6763 19.7288 51.0272 19.7288 51.0467C19.7873 51.3734 24.4397 63.8582 24.4397 63.8582C24.469 63.9655 24.5178 64.0679 24.5812 64.1605C25.3078 65.17 26.449 65.7699 27.6584 65.7699H27.6681C28.2875 65.7699 69.4764 65.7699 70.0958 65.7699H70.1055C71.315 65.7699 72.4561 65.17 73.1828 64.1605C73.2462 64.0679 73.2949 63.9655 73.3291 63.8582C73.3291 63.8582 78.0351 51.2027 78.0644 50.7833C78.0644 50.7638 78.0693 50.7394 78.0741 50.715L78.6057 47.4183L79.9175 39.3178H50.5986V20.8589H82.9021L85.0137 7.82306C79.0251 4.89207 71.6222 2.67798 63.361 1.47339L63.3561 1.50753C59.0256 0.858908 54.0952 0.488268 48.8576 0.488268C43.6443 0.488268 38.7286 0.854034 34.4078 1.50266V1.46852C26.1222 2.67798 18.6998 4.89695 12.7063 7.84745C13.3305 11.705 14.0669 16.2161 14.8179 20.8589H47.1702Z" fill="white"/>
<path d="M8.5294 57.008C9.26579 56.5594 10.1339 56.296 11.0604 56.296C13.7573 56.296 15.942 58.4809 15.942 61.1729C15.942 63.7381 13.9572 65.84 11.4408 66.0351C11.314 66.0449 11.1872 66.0546 11.0604 66.0546C9.44623 66.0546 8.01735 65.2646 7.12978 64.0551C6.80304 63.6113 6.54457 63.1041 6.38364 62.5579C6.25197 62.119 6.17881 61.6557 6.17881 61.1729C6.17881 59.4075 7.1249 57.8664 8.5294 57.008ZM18.2244 67.4348C20.2385 67.4348 21.8673 69.0636 21.8673 71.0778C21.8673 73.087 20.2385 74.7208 18.2244 74.7208C16.2151 74.7208 14.5814 73.087 14.5814 71.0778C14.5814 69.0636 16.2151 67.4348 18.2244 67.4348ZM72.5025 81.207H72.5122C72.5074 81.207 72.5074 81.207 72.5025 81.207ZM73.6144 81.4947H73.6241C73.6193 81.4947 73.6193 81.4947 73.6144 81.4947ZM79.4811 67.4348H79.486C81.5001 67.4348 83.1289 69.0636 83.1289 71.0778C83.1289 73.087 81.5001 74.7208 79.486 74.7208H79.4811C77.4719 74.7208 75.8382 73.087 75.8382 71.0778C75.8382 69.0636 77.4719 67.4348 79.4811 67.4348ZM86.645 56.296C87.5765 56.296 88.4446 56.5594 89.1809 57.008C90.5903 57.8664 91.5315 59.4075 91.5315 61.1729C91.5315 61.6557 91.4584 62.119 91.3267 62.5579C91.1658 63.1041 90.9122 63.6113 90.5806 64.0551C89.693 65.2646 88.269 66.0546 86.6499 66.0546C86.5231 66.0546 86.3914 66.0449 86.2646 66.0351C83.7482 65.84 81.7683 63.7381 81.7683 61.1729C81.7683 58.4809 83.9482 56.296 86.645 56.296ZM4.86697 84.9134C5.0084 84.9037 5.14007 84.8744 5.27662 84.8744C5.55947 84.8744 5.84232 84.8939 6.12517 84.9329C9.06097 85.3475 23.8472 87.0739 28.2753 87.4299C29.436 87.5225 30.4845 87.9322 31.3379 88.5564C32.3181 89.2733 33.0155 90.2828 33.3471 91.4435C33.4788 91.902 33.5666 92.375 33.5666 92.8773V97.8517V101.192H64.1438V97.8517V92.8773C64.1438 92.375 64.2364 91.902 64.3681 91.4435C64.6948 90.2828 65.3971 89.2733 66.3724 88.5564C67.2258 87.9322 68.2744 87.5225 69.435 87.4299C73.868 87.0739 88.6543 85.3475 91.5852 84.9329C91.8729 84.8939 92.1558 84.8744 92.4337 84.8744C92.5752 84.8744 92.7068 84.9037 92.8434 84.9134C93.6236 84.972 94.36 85.1719 95.0281 85.4987C95.1403 85.484 95.2281 85.4743 95.2769 85.4645V62.2555L94.7209 21.0558L94.716 20.4999C94.7063 20.1829 94.6478 19.8318 94.5502 19.4416C94.4186 18.9783 94.2723 18.5248 94.1016 18.081C94.0967 18.0615 94.0869 18.0419 94.0821 18.0224C92.7995 14.6184 90.522 11.6386 87.5619 9.38065C84.6261 27.4445 80.7344 51.3753 80.7198 51.4631C80.6661 51.7459 80.6223 52.0141 75.9113 64.6598C75.7943 65.011 75.6334 65.3377 75.4237 65.6255C74.185 67.347 72.1855 68.3711 70.0787 68.3711H48.3675H27.6365C25.5248 68.3711 23.5254 67.347 22.2916 65.6255C22.0819 65.3377 21.9161 65.011 21.8039 64.6598C17.0881 52.0141 17.0442 51.7459 16.9954 51.4631C16.9808 51.3753 13.0892 27.4445 10.1534 9.38065C7.19318 11.6386 4.91086 14.6184 3.63316 18.0224C3.6234 18.0419 3.61853 18.0615 3.60877 18.081C3.44296 18.5248 3.29178 18.9783 3.16011 19.4416C3.06258 19.8318 3.00893 20.1829 2.99918 20.4999L2.98943 21.0558L2.43835 62.2555V85.4645C2.48225 85.4743 2.5749 85.484 2.68219 85.4987C3.3503 85.1719 4.08669 84.972 4.86697 84.9134Z" fill="white"/>
<path d="M86.2617 66.0423C86.3885 66.0521 86.5153 66.0618 86.6421 66.0618H86.647C86.5202 66.0618 86.3885 66.0521 86.2617 66.0423C83.7453 65.8472 81.7703 63.7502 81.7703 61.1801C81.7703 58.4881 83.955 56.3032 86.647 56.3032H86.6421C83.9502 56.3032 81.7703 58.4881 81.7703 61.1801C81.7703 63.7502 83.7453 65.8472 86.2617 66.0423Z" fill="white"/>
<path d="M91.5229 61.1801C91.5229 61.6629 91.4497 62.1262 91.318 62.5651C91.1571 63.1113 90.9035 63.6136 90.5719 64.0623C89.6843 65.2718 88.2603 66.0618 86.6461 66.0618C88.2603 66.0618 89.6941 65.2718 90.5816 64.0623C90.9084 63.6136 91.1669 63.1113 91.3278 62.5651C91.4546 62.1262 91.5277 61.6629 91.5277 61.1801C91.5277 59.4147 90.5865 57.8687 89.182 57.0153C90.5865 57.8687 91.5229 59.4147 91.5229 61.1801Z" fill="#00459D"/>
</svg>
