<svg width="98" height="144" viewBox="0 0 98 144" fill="none" xmlns="http://www.w3.org/2000/svg">
<path d="M73.9696 124.322L87.8049 143.438H97.6706L79.8119 124.322H73.9696Z" fill="white"/>
<path d="M24.1623 124.322H18.1883L0.456421 143.438H10.3269L24.1623 124.322Z" fill="white"/>
<path d="M22.3744 130.715H75.6089L73.268 127.277H24.7103L22.3744 130.715Z" fill="white"/>
<path d="M78.5029 137.051H19.3529L17.017 140.489H80.8389L78.5029 137.051Z" fill="white"/>
<path d="M16.452 120.558C19.5341 121.445 43.9227 121.226 49.0579 121.226C54.1931 121.226 78.4598 121.445 81.6687 120.558C83.3365 120.114 86.8039 117.666 89.886 115.14H8.23474C11.3168 117.554 14.7842 120.114 16.452 120.558Z" fill="white"/>
<path d="M72.0141 26.3152H26.1094C25.9923 26.3152 25.9923 26.1982 25.9923 26.1982L27.4846 20.8045C27.4846 20.6923 27.6017 20.6923 27.6017 20.6923H70.6389C70.7511 20.6923 70.7511 20.8045 70.7511 20.8045L72.1312 26.1982C72.1312 26.3152 72.0141 26.3152 72.0141 26.3152ZM48.6009 6.69121H48.8301H49.0593H49.2885H49.5177C52.0439 6.69121 54.1116 8.75407 54.1116 11.2802C54.1116 13.8064 52.0439 15.8692 49.5177 15.8692H49.2885H49.0593H48.8301H48.6009C46.0796 15.8692 44.0119 13.8064 44.0119 11.2802C44.0119 8.64191 46.0796 6.69121 48.6009 6.69121ZM85.6446 10.1976C84.1328 9.07106 82.5138 8.03719 80.7728 7.11061C78.2612 5.77926 75.54 4.63323 72.614 3.70665C66.8009 1.86811 60.2222 0.873259 53.2241 0.600162C52.3658 0.561148 51.4977 0.536763 50.6296 0.517256C50.2395 0.51238 49.8689 0.478245 49.4836 0.478245C49.3422 0.478245 49.2056 0.487998 49.0642 0.487998C48.9277 0.487998 48.7911 0.478245 48.6497 0.478245C48.2595 0.478245 47.8889 0.51238 47.5036 0.517256C46.6356 0.536763 45.7675 0.561148 44.9092 0.600162C37.9111 0.873259 31.3324 1.86811 25.5193 3.70665C22.5933 4.63323 19.872 5.77926 17.3605 7.11061C15.6195 8.03719 14.0004 9.07106 12.4886 10.1976L12.5374 10.3878C12.5228 10.3975 12.5033 10.4073 12.4886 10.4219L17.9994 32.2648H18.0091H80.1242H80.129L85.6446 10.4219C85.63 10.4073 85.6105 10.3975 85.5959 10.3878L85.6446 10.1976Z" fill="white"/>
<path d="M81.1871 99.3597C81.1871 100.047 80.7287 100.506 80.0411 100.506H67.4152C66.7276 100.506 66.2692 100.047 66.2692 99.3597V98.2137C66.2692 97.526 66.7276 97.0628 67.4152 97.0628H80.0411C80.7287 97.0628 81.1871 97.526 81.1871 98.2137V99.3597ZM81.1871 105.387C81.1871 106.075 80.7287 106.533 80.0411 106.533H67.4152C66.7276 106.533 66.2692 106.075 66.2692 105.387V104.241C66.2692 103.549 66.7276 103.09 67.4152 103.09H80.0411C80.7287 103.09 81.1871 103.549 81.1871 104.241V105.387ZM31.6102 99.3597C31.6102 100.047 31.1518 100.506 30.4593 100.506H17.8383C17.1507 100.506 16.6874 100.047 16.6874 99.3597V98.2137C16.6874 97.526 17.1507 97.0628 17.8383 97.0628H30.4593C31.1518 97.0628 31.6102 97.526 31.6102 98.2137V99.3597ZM31.6102 105.387C31.6102 106.075 31.1518 106.533 30.4593 106.533H17.8383C17.1507 106.533 16.6874 106.075 16.6874 105.387V104.241C16.6874 103.549 17.1507 103.09 17.8383 103.09H30.4593C31.1518 103.09 31.6102 103.549 31.6102 104.241V105.387ZM1.5646 92.0105C1.45731 101.379 3.23732 107.436 3.23732 107.436C3.23732 107.436 4.0371 111.2 6.71931 113.536H91.2869C93.9691 111.2 94.7689 107.436 94.7689 107.436C94.7689 107.436 96.5489 101.271 96.5635 92.0105H1.5646Z" fill="white"/>
<path d="M94.727 69.0662H82.9545L88.8603 56.7228L94.727 44.5697V69.0662ZM81.1209 82.9164C79.136 82.9164 77.5267 81.429 77.6535 79.4441C77.6535 77.586 79.2628 75.9767 81.1209 75.9767C82.974 75.9767 84.5882 77.4641 84.5882 79.4441C84.5882 81.3022 83.1008 82.9164 81.1209 82.9164ZM68.9193 85.2915C66.32 85.2915 64.3449 83.1895 64.2181 80.5902C64.2181 77.9957 66.32 75.8938 68.9193 75.8938C71.5137 75.8938 73.6204 77.9957 73.6204 80.5902C73.6204 83.1895 71.5137 85.2915 68.9193 85.2915ZM29.208 85.2915C26.6135 85.2915 24.5117 83.1895 24.5117 80.5902C24.5117 77.9957 26.6135 75.8938 29.208 75.8938C31.8073 75.8938 33.9092 77.9957 33.9092 80.5902C33.7872 83.1895 31.8073 85.2915 29.208 85.2915ZM17.0064 82.9164C15.0264 82.9164 13.5439 81.3022 13.5439 79.4441C13.5439 77.4641 15.1532 75.9767 17.0064 75.9767C18.8644 75.9767 20.4737 77.586 20.4737 79.4441C20.6005 81.429 18.9912 82.9164 17.0064 82.9164ZM3.40515 44.5697L9.27186 56.7228L15.1776 69.0662H3.40515V44.5697ZM96.5655 69.0662V40.2634C96.6972 37.3714 96.824 31.1437 94.0003 22.5848C91.4303 15.0208 88.8651 12.3532 87.8361 11.685L82.8277 32.3678V32.48L71.7917 69.0662H26.3453L15.3044 32.7043L10.296 11.685C9.27186 12.4653 6.70182 15.2451 4.13665 22.5848C1.30814 31.2559 1.30814 37.4836 1.56661 40.3756C1.56661 40.044 1.43982 69.0662 1.43982 69.0662C1.43982 76.3522 1.56662 83.9698 1.57149 90.4122H96.5704C96.5704 83.8577 96.6923 76.2449 96.5655 69.0662Z" fill="white"/>
</svg>
