<svg width="79" height="42" viewBox="0 0 79 42" fill="none" xmlns="http://www.w3.org/2000/svg">
<path d="M78.9492 32.5734V41.6666H60.5965C54.1436 41.6666 49.918 38.6881 49.918 38.6881C43.6199 34.2389 44.2763 26.9804 44.2763 26.9804C45.1507 14.6822 55.4995 14.7023 55.4995 14.7023C58.9396 14.7396 59.9114 18.1567 59.9114 18.1567C61.0953 17.2336 60.8144 15.4534 60.8144 15.4534C60.7943 13.1256 58.9396 11.5776 58.9396 11.5776C56.7007 8.88286 52.0939 9.04627 52.0939 9.04627C42.8516 9.28707 34.5353 17.2021 34.5353 17.2021L22.9079 27.1381C15.9962 32.7253 7.80032 32.7683 7.80032 32.7683H0V23.655H6.81417C6.81417 23.655 12.3011 24.3631 18.6193 18.8762L28.6642 10.2503C28.6642 10.2503 39.5176 0.0161312 52.1799 0.0161312C52.1799 0.0161312 59.3438 -0.540011 65.1775 4.87521C65.1775 4.87521 70.028 9.14374 69.9449 15.505C69.9449 15.505 70.3634 22.9269 63.9162 26.3354C63.9162 26.3354 61.7231 27.7372 59.5874 27.7372C59.5874 27.7372 55.875 27.7372 55.1039 23.8729C55.1039 23.8729 53.3753 24.5838 53.3753 27.1839C53.3753 27.1839 52.6959 32.625 60.5105 32.625L78.9492 32.5734Z" fill="white"/>
</svg>
