<svg width="60" height="66" viewBox="0 0 60 66" fill="none" xmlns="http://www.w3.org/2000/svg">
<path d="M14.5075 65.7143H30.9851C39.7466 59.549 39.5495 45.7533 35.4627 28.6447L38.1493 28.083L41.0149 33.138L45.4925 35.9463L48.5373 46.2434L47.6418 29.3936L42.4478 21.5303L49.9702 25.462L53.7314 32.5763L52.8358 38.7546L60 25.2747L56.2388 14.2287L39.2239 11.2332L40.2985 5.80383L51.5821 8.42492L38.5075 0L30.6269 6.73993L25.4328 0.374444L10.3881 3.93162L18.2687 9.17379H8.77612L0 15.3521L0.537313 25.462L6.62687 25.2747L4.83582 22.092L22.0299 17.7859L12.1791 22.092L6.44776 32.3891L18.0896 41.0012L17.0149 30.3297L21.3134 28.083L27.403 27.5214C33.7546 47.6741 29.648 60.5389 14.5075 65.7143Z" fill="white"/>
</svg>
