<svg width="100" height="162" viewBox="0 0 100 162" fill="none" xmlns="http://www.w3.org/2000/svg">
<path d="M67.8024 2.40626C67.2604 0.957444 65.877 0 64.3312 0H49.3116H34.2919C32.7461 0 31.3627 0.959553 30.8207 2.40626L29.3613 6.30984H32.9064L34.2456 3.91202C34.4332 3.5767 34.7854 3.37003 35.1693 3.37003H40.8802H40.954L45.8867 13.284H49.3158L44.8386 3.37003H49.3094H53.7951L49.3158 13.284H52.7449L57.6776 3.37003H57.7408H63.4518C63.8356 3.37003 64.1899 3.5767 64.3755 3.91202L65.7146 6.30984H69.2597L67.8024 2.40626Z" fill="white"/>
<path d="M9.79394 38.8302C9.70958 37.7251 10.5848 36.7846 11.692 36.7846H86.615C87.7306 36.7846 88.6058 37.7378 88.5109 38.8492L83.1585 101.304C89.734 101.02 94.8882 100.735 97.5792 100.579L93.8844 27.8027C93.6123 21.0985 88.0195 15.801 81.212 15.801H17.696C10.8821 15.801 5.28722 21.107 5.02149 27.8154L1.48486 100.303C3.47567 100.467 8.13002 100.83 14.5263 101.193L9.79394 38.8302ZM27.513 26.995C27.513 25.1582 29.0018 23.6672 30.8408 23.6672H67.7951C69.632 23.6672 71.123 25.1561 71.123 26.995V27.3303C71.123 29.1672 69.6341 30.6582 67.7951 30.6582H30.8408C29.0039 30.6582 27.513 29.1693 27.513 27.3303V26.995Z" fill="white"/>
<path d="M97.7434 103.929C90.9401 104.326 68.6975 105.519 47.4566 105.519C25.4861 105.519 6.22123 104.062 1.31592 103.657L0.0126135 130.366C-0.263653 136.033 4.03008 140.909 9.76208 141.438C18.6511 142.261 32.7238 143.233 49.5444 143.233C66.3608 143.233 80.4399 142.261 89.3373 141.44C95.0778 140.909 99.3736 136.023 99.0868 130.348L97.7434 103.929ZM22.3016 129.692C18.0374 129.692 14.5809 126.235 14.5809 121.971C14.5809 117.707 18.0374 114.25 22.3016 114.25C26.5658 114.25 30.0223 117.707 30.0223 121.971C30.0244 126.235 26.5658 129.692 22.3016 129.692ZM76.7071 129.692C72.4429 129.692 68.9864 126.235 68.9864 121.971C68.9864 117.707 72.4429 114.25 76.7071 114.25C80.9713 114.25 84.4278 117.707 84.4278 121.971C84.4278 126.235 80.9713 129.692 76.7071 129.692Z" fill="white"/>
<path d="M70.9606 145.48L82.8548 161.917H91.3368L75.9819 145.48H70.9606Z" fill="white"/>
<path d="M28.137 145.48H23.0019L7.75659 161.917H16.2428L28.137 145.48Z" fill="white"/>
<path d="M15.0754 155.138H82.8851L79.9074 151.751H18.0532L15.0754 155.138Z" fill="white"/>
</svg>
