<svg width="63" height="52" viewBox="0 0 63 52" fill="none" xmlns="http://www.w3.org/2000/svg">
<path fill-rule="evenodd" clip-rule="evenodd" d="M33.1614 0.48482C31.6682 1.48283 30.6583 2.9869 26.8961 9.81655C24.7594 13.6953 22.9553 16.939 22.887 17.0245C22.8187 17.1104 22.0673 16.7736 21.2173 16.2765C20.3675 15.7798 19.3643 15.3793 18.9879 15.387C17.5884 15.4161 17.5025 15.5469 9.45632 29.905C7.2825 33.7838 4.58618 38.5922 3.46409 40.5904C2.34233 42.5885 1.12718 44.6152 0.764227 45.0939C0.400921 45.5726 0.0598995 46.4296 0.00612882 46.9976C-0.140679 48.5512 2.36992 49.9352 5.39168 49.9668C8.81497 50.0023 18.0451 47.6276 21.6644 45.7799C23.8895 44.6438 30.7407 42.8414 35.7621 42.0709C38.2879 41.6833 42.9717 42.2167 42.7909 42.8713C42.7159 43.1432 42.1106 43.489 41.4456 43.6398C38.4783 44.3134 34.9196 45.4623 30.2889 47.2421C25.6254 49.0347 23.7866 50.2374 24.2684 51.1794C24.3784 51.3944 26.9396 51.4876 30.0516 51.3897C35.0455 51.2333 35.9563 51.0845 38.6445 49.9882C46.9663 46.5933 54.7506 45.7713 60.1199 47.7204C61.1331 48.0884 62.2145 48.2721 62.523 48.129C63.2277 47.8024 62.95 47.1254 60.4011 42.9594C59.3883 41.3037 57.477 38.0259 56.1536 35.6751C54.8302 33.3243 53.6526 31.3048 53.5365 31.1872C53.4205 31.0697 52.5145 29.531 51.5237 27.7679C46.3794 18.6157 39.5102 6.64642 37.5872 3.48527C36.6348 1.91965 34.6454 -0.0379091 34.0458 0.000558159C33.9485 0.00696937 33.5506 0.22495 33.1614 0.48482ZM24.7017 20.3732C28.3196 13.7419 32.381 6.54469 32.8897 5.86297C33.1968 5.4518 33.6344 5.11499 33.8622 5.11499C34.4013 5.11499 35.4767 6.56136 36.7219 8.96172C37.2705 10.0196 37.8917 11.0774 38.1022 11.3125C38.3127 11.5476 39.0719 12.7978 39.7896 14.0907C40.507 15.3836 41.6624 17.4031 42.3568 18.5785C43.0512 19.7539 44.0043 21.3888 44.4751 22.2116C44.9456 23.0343 45.6535 24.1883 46.0479 24.776C46.9797 26.1643 47.0582 27.9735 46.1618 27.4059C45.8215 27.1901 44.3623 26.7759 42.9196 26.4853C38.3516 25.5655 34.6115 26.549 28.1972 30.3559C23.0419 33.4158 20.6962 34.1313 18.0307 33.4555C14.1907 32.4823 12.5301 30.273 14.1694 28.3189C14.5221 27.8983 15.7146 25.8924 16.819 23.8618C17.9234 21.8307 19.106 20.0399 19.4471 19.8817C19.8967 19.6736 20.4075 20.0728 21.3078 21.3371C21.9902 22.2953 22.708 23.0668 22.9025 23.0514C23.0971 23.0356 23.9069 21.8307 24.7017 20.3732Z" fill="white"/>
</svg>
