<svg width="39" height="39" viewBox="0 0 39 39" fill="none" xmlns="http://www.w3.org/2000/svg">
<path d="M8.09653 24.843C8.09653 24.843 -4.26206 15.2942 11.7295 4.45214C11.7295 4.45214 22.328 -2.31422 38.5714 0.836217C32.4544 2.88535 30.7321 12.507 30.7321 12.507C29.8636 18.5233 27.4955 22.209 27.4955 22.209C23.0549 30.598 12.639 27.665 12.639 27.665C11.5014 34.526 5.54071 38.5714 5.54071 38.5714L0 33.9128C0 33.9128 9.94379 32.9481 12.3322 20.2099C12.3322 20.2099 13.2934 12.5152 18.9731 9.45673C18.9731 9.45673 13.2933 11.2187 11.4667 17.1488C11.4667 17.1488 9.82817 23.2684 8.09716 24.8435" fill="white"/>
</svg>
